<?xml version="1.0" encoding="UTF-8" standalone="no"?>
<!-- Generator: Adobe Illustrator 16.0.0, SVG Export Plug-In . SVG Version: 6.00 Build 0)  -->

<svg
   xmlns:dc="http://purl.org/dc/elements/1.1/"
   xmlns:cc="http://creativecommons.org/ns#"
   xmlns:rdf="http://www.w3.org/1999/02/22-rdf-syntax-ns#"
   xmlns:svg="http://www.w3.org/2000/svg"
   xmlns="http://www.w3.org/2000/svg"
   xmlns:sodipodi="http://sodipodi.sourceforge.net/DTD/sodipodi-0.dtd"
   xmlns:inkscape="http://www.inkscape.org/namespaces/inkscape"
   version="1.1"
   id="Layer_1"
   x="0px"
   y="0px"
   width="68px"
   height="67.5px"
   viewBox="-22.5 0 68 67.5"
   enable-background="new -22.5 0 68 67.5"
   xml:space="preserve"
   inkscape:version="0.91 r13725"
   sodipodi:docname="logo.svg"><metadata
   id="metadata51"><rdf:RDF><cc:Work
       rdf:about=""><dc:format>image/svg+xml</dc:format><dc:type
         rdf:resource="http://purl.org/dc/dcmitype/StillImage" /></cc:Work></rdf:RDF></metadata><defs
   id="defs49">
	
	
	
</defs><sodipodi:namedview
   pagecolor="#ffffff"
   bordercolor="#666666"
   borderopacity="1"
   objecttolerance="10"
   gridtolerance="10"
   guidetolerance="10"
   inkscape:pageopacity="0"
   inkscape:pageshadow="2"
   inkscape:window-width="1280"
   inkscape:window-height="778"
   id="namedview47"
   showgrid="false"
   inkscape:zoom="3.4962963"
   inkscape:cx="43.039005"
   inkscape:cy="33.463983"
   inkscape:window-x="-8"
   inkscape:window-y="-8"
   inkscape:window-maximized="1"
   inkscape:current-layer="Layer_1" />


<path
   fill-rule="evenodd"
   clip-rule="evenodd"
   d="M68.403,222.8c-0.243-0.011-0.487-0.021-0.73-0.032  c0.002-0.082,0.004-0.166,0.006-0.249c0.243,0,0.487,0,0.73,0C68.407,222.612,68.405,222.706,68.403,222.8z"
   id="path29" />





<text
   xml:space="preserve"
   style="font-style:normal;font-variant:normal;font-weight:normal;font-stretch:normal;font-size:13.75px;line-height:50%;font-family:'Berlin Sans FB';-inkscape-font-specification:'Berlin Sans FB, Normal';text-align:start;letter-spacing:0px;word-spacing:0px;writing-mode:lr-tb;text-anchor:start;fill:#000000;fill-opacity:1;stroke:none;stroke-width:1px;stroke-linecap:butt;stroke-linejoin:miter;stroke-opacity:1"
   x="120.22246"
   y="30.603813"
   id="text4195"
   sodipodi:linespacing="50%"><tspan
     sodipodi:role="line"
     id="tspan4197"
     x="120.22246"
     y="30.603813" /></text>
<g
   id="g4210"><path
     style="clip-rule:evenodd;fill:#ffffff;fill-rule:evenodd"
     inkscape:connector-curvature="0"
     id="path31"
     d="m 10.718033,29.943221 c 0,0.03566 0,0.0722 0,0.106967 -0.0018,0 -0.0045,0 -0.0071,0 0,-0.03477 0,-0.07131 0,-0.106967 0.0027,0 0.0053,0 0.0071,0 z" /><path
     style="clip-rule:evenodd;fill:#ffffff;fill-rule:evenodd"
     inkscape:connector-curvature="0"
     id="path33"
     d="m 16.715322,29.943221 c 0,0.03566 0,0.0722 0,0.106967 -0.0018,0 -0.0045,0 -0.0071,0 0,-0.03477 0,-0.07131 0,-0.106967 0.0027,0 0.0053,0 0.0071,0 z" /><path
     d="m 12.013,3.587814 c 0.463,-0.206 0.651,-0.657 0.6,-0.991 -0.086,-0.584 -0.511,-0.825 -0.913,-0.834 -0.429,-0.007 -0.795,0.302 -0.898,0.685 -0.129,0.489 0.144,0.949 0.576,1.118 -0.021,0.046 -0.063,0.039 -0.098,0.046 -0.157,0.029 -0.295,0.09 -0.387,0.228 -0.056,0.082 -0.093,0.172 -0.094,0.268 0,0.073 -10e-4,0.142 -10e-4,0.21 0,3.39 0,6.781 0,10.171 0,0.131 0.015,0.25 0.075,0.37 0.028,0.054 0.028,0.129 0.02,0.192 -0.041,0.273 -0.084,0.549 -0.132,0.824 -0.032,0.178 -0.066,0.356 -0.111,0.531 -0.051,0.201 -0.116,0.397 -0.175,0.594 -0.084,0.276 -0.168,0.553 -0.259,0.824 -0.077,0.232 -0.162,0.46 -0.25,0.687 -0.104,0.272 -0.21,0.545 -0.322,0.813 -0.105,0.258 -0.216,0.517 -0.328,0.772 -0.134,0.316 -0.27,0.638 -0.408,0.954 -0.132,0.303 -0.269,0.605 -0.404,0.904 -0.215,0.477 -0.433,0.953 -0.645,1.427 -0.153,0.34 -0.3,0.684 -0.448,1.024 -0.125,0.284 -0.253,0.569 -0.372,0.858 -0.124,0.299 -0.242,0.604 -0.359,0.908 -0.094,0.247 -0.191,0.493 -0.273,0.744 -0.095,0.29 -0.176,0.583 -0.258,0.876 -0.051,0.185 -0.102,0.372 -0.134,0.561 -0.039,0.228 -0.076,0.456 -0.07,0.691 0.006,0.212 0.005,0.426 0.01,0.637 0.008,0.2 0.042,0.394 0.087,0.587 0.05,0.212 0.094,0.428 0.16,0.638 0.072,0.223 0.156,0.442 0.251,0.654 0.142,0.314 0.315,0.607 0.514,0.888 0.228,0.319 0.481,0.614 0.764,0.885 0.23,0.219 0.474,0.417 0.732,0.598 0.353,0.248 0.729,0.451 1.129,0.611 0.245,0.096 0.489,0.184 0.744,0.247 0.15,0.036 0.299,0.063 0.449,0.095 0.146,0.032 0.294,0.025 0.438,0.051 0.257,0.047 0.516,0.037 0.774,0.025 0.189,-0.009 0.381,-0.047 0.57,-0.076 0.121,-0.017 0.243,-0.037 0.362,-0.059 0.071,-0.014 0.144,-0.032 0.21,-0.052 0.453,-0.134 0.888,-0.303 1.298,-0.536 0.436,-0.248 0.837,-0.541 1.2,-0.89 0.279,-0.264 0.528,-0.546 0.751,-0.854 0.241,-0.33 0.44,-0.687 0.6,-1.062 0.097,-0.229 0.175,-0.466 0.249,-0.702 0.084,-0.284 0.13,-0.574 0.177,-0.861 0.021,-0.136 0.023,-0.271 0.023,-0.406 0.004,-0.205 0.004,-0.41 -0.007,-0.615 -0.016,-0.274 -0.07,-0.543 -0.138,-0.812 -0.04,-0.156 -0.074,-0.314 -0.115,-0.469 -0.032,-0.123 -0.066,-0.246 -0.109,-0.365 -0.07,-0.209 -0.145,-0.419 -0.223,-0.629 -0.072,-0.203 -0.146,-0.405 -0.224,-0.604 -0.116,-0.296 -0.237,-0.593 -0.357,-0.886 -0.088,-0.212 -0.18,-0.419 -0.269,-0.625 -0.152,-0.347 -0.305,-0.691 -0.457,-1.035 -0.115,-0.25 -0.227,-0.504 -0.343,-0.755 -0.16,-0.359 -0.323,-0.722 -0.483,-1.081 -0.158,-0.356 -0.319,-0.708 -0.472,-1.064 -0.156,-0.364 -0.308,-0.73 -0.456,-1.096 -0.139,-0.337 -0.275,-0.676 -0.403,-1.017 -0.099,-0.255 -0.182,-0.516 -0.271,-0.774 -0.075,-0.225 -0.156,-0.447 -0.223,-0.674 -0.074,-0.257 -0.137,-0.514 -0.2,-0.773 -0.039,-0.148 -0.074,-0.299 -0.1,-0.451 -0.026,-0.141 -0.039,-0.285 -0.059,-0.426 -0.014,-0.1 -0.028,-0.196 -0.041,-0.299 -0.009,-0.067 0,-0.137 0.041,-0.197 0.059,-0.086 0.053,-0.183 0.053,-0.281 0,-1.597 0,-3.191 0,-4.788 0,-1.851 0,-3.704 0.004,-5.553 0,-0.15 -0.024,-0.283 -0.125,-0.399 -0.093,-0.104 -0.214,-0.15 -0.344,-0.178 -0.033,-0.008 -0.068,-0.019 -0.103,-0.027 z m -0.426,17.096 c 0.01,0 0.021,0 0.031,0 0.02,0.12 0.042,0.243 0.059,0.36 0.021,0.135 0.031,0.27 0.055,0.402 0.021,0.113 0.057,0.223 0.083,0.336 0.058,0.245 0.116,0.495 0.174,0.743 0.039,0.161 0.085,0.32 0.122,0.48 0.039,0.169 0.069,0.34 0.107,0.511 0.041,0.174 0.088,0.341 0.127,0.513 0.051,0.224 0.098,0.443 0.141,0.666 0.051,0.256 0.102,0.51 0.149,0.765 0.022,0.118 0.044,0.236 0.061,0.354 0.021,0.134 0.038,0.268 0.057,0.402 0.03,0.202 0.06,0.402 0.091,0.604 0.002,0.017 0.002,0.033 0.004,0.046 0.024,0.17 0.055,0.343 0.076,0.515 0.02,0.144 0.033,0.291 0.045,0.437 0.019,0.2 0.037,0.402 0.047,0.603 0.01,0.186 0.016,0.37 0.02,0.557 0.002,0.385 0.011,0.767 0.002,1.151 -0.006,0.29 -0.031,0.579 -0.057,0.867 -0.014,0.165 -0.037,0.329 -0.057,0.494 0,0.006 -0.004,0.015 -0.004,0.022 -0.026,0.128 -0.051,0.256 -0.076,0.383 -0.021,0.107 -0.035,0.216 -0.064,0.317 -0.055,0.212 -0.115,0.423 -0.186,0.63 -0.062,0.193 -0.137,0.386 -0.217,0.572 -0.111,0.252 -0.245,0.495 -0.398,0.727 -0.095,0.139 -0.198,0.272 -0.3,0.407 -0.044,0.056 -0.07,0.056 -0.116,-0.003 -0.064,-0.081 -0.127,-0.163 -0.188,-0.249 -0.209,-0.295 -0.383,-0.613 -0.523,-0.945 -0.091,-0.219 -0.169,-0.445 -0.244,-0.67 -0.048,-0.148 -0.074,-0.301 -0.115,-0.448 -0.062,-0.24 -0.115,-0.481 -0.145,-0.726 -0.016,-0.139 -0.041,-0.275 -0.056,-0.415 -0.03,-0.269 -0.067,-0.537 -0.076,-0.807 -0.013,-0.383 -0.008,-0.767 -0.009,-1.15 0,-0.158 -0.003,-0.319 0.01,-0.476 0.021,-0.315 0.049,-0.632 0.078,-0.947 0.03,-0.294 0.062,-0.585 0.097,-0.878 0.016,-0.143 0.042,-0.283 0.06,-0.426 0.022,-0.159 0.041,-0.322 0.065,-0.479 0.042,-0.271 0.091,-0.536 0.137,-0.8 0.004,-0.02 0.009,-0.038 0.015,-0.056 0.023,-0.114 0.047,-0.226 0.07,-0.341 0.022,-0.118 0.042,-0.238 0.064,-0.36 0.015,-0.083 0.035,-0.165 0.05,-0.25 0.028,-0.119 0.056,-0.239 0.085,-0.361 0.042,-0.187 0.086,-0.376 0.13,-0.562 0.035,-0.15 0.073,-0.299 0.108,-0.45 0.022,-0.1 0.042,-0.203 0.062,-0.303 0.017,-0.073 0.034,-0.143 0.053,-0.215 0.025,-0.098 0.054,-0.197 0.078,-0.3 0.022,-0.104 0.039,-0.211 0.059,-0.316 0.032,-0.165 0.065,-0.326 0.093,-0.489 0.026,-0.148 0.044,-0.295 0.066,-0.442 z m 0.381,-4.01 c 0.007,0 0.015,0 0.021,0 0.007,0.012 0.017,0.025 0.02,0.036 0.054,0.263 0.106,0.523 0.158,0.783 0.016,0.08 0.034,0.157 0.053,0.238 0.043,0.168 0.087,0.332 0.127,0.502 0.041,0.158 0.074,0.322 0.114,0.481 0.043,0.185 0.092,0.367 0.139,0.549 0.036,0.146 0.08,0.291 0.117,0.436 0.039,0.145 0.081,0.29 0.119,0.433 0.04,0.143 0.07,0.283 0.109,0.425 0.061,0.215 0.123,0.43 0.184,0.644 0.059,0.208 0.119,0.416 0.178,0.624 0.039,0.141 0.077,0.28 0.115,0.421 0.035,0.123 0.07,0.251 0.105,0.375 0.043,0.141 0.088,0.281 0.129,0.42 0.041,0.139 0.074,0.275 0.117,0.412 0.057,0.189 0.12,0.382 0.176,0.571 0.052,0.185 0.101,0.369 0.153,0.554 0.064,0.218 0.13,0.435 0.197,0.653 0.06,0.19 0.116,0.382 0.177,0.574 0.035,0.125 0.068,0.251 0.105,0.376 0.037,0.138 0.069,0.273 0.107,0.413 0.042,0.149 0.089,0.302 0.131,0.453 0.038,0.153 0.07,0.31 0.115,0.461 0.066,0.234 0.108,0.476 0.123,0.718 0.038,0.767 0.031,1.53 -0.13,2.289 -0.077,0.364 -0.164,0.724 -0.288,1.08 -0.096,0.274 -0.201,0.538 -0.33,0.797 -0.231,0.463 -0.518,0.888 -0.885,1.258 -0.298,0.302 -0.639,0.545 -1.018,0.737 -0.078,0.039 -0.16,0.068 -0.259,0.108 0.012,-0.042 0.014,-0.061 0.024,-0.075 0.058,-0.095 0.119,-0.187 0.177,-0.283 0.191,-0.308 0.335,-0.641 0.469,-0.974 0.06,-0.148 0.104,-0.299 0.147,-0.45 0.042,-0.147 0.076,-0.297 0.109,-0.448 0.047,-0.198 0.094,-0.396 0.129,-0.597 0.031,-0.184 0.055,-0.367 0.073,-0.553 0.032,-0.325 0.067,-0.646 0.077,-0.971 0.025,-0.678 0.008,-1.357 -0.054,-2.031 -0.033,-0.394 -0.087,-0.785 -0.132,-1.176 -0.034,-0.288 -0.074,-0.574 -0.111,-0.863 0,-0.019 -0.006,-0.036 -0.009,-0.055 -0.024,-0.134 -0.052,-0.264 -0.074,-0.397 -0.021,-0.125 -0.036,-0.253 -0.06,-0.377 -0.04,-0.204 -0.089,-0.405 -0.129,-0.608 -0.031,-0.147 -0.058,-0.297 -0.091,-0.443 -0.05,-0.229 -0.106,-0.458 -0.159,-0.688 -0.037,-0.172 -0.07,-0.345 -0.111,-0.518 -0.039,-0.161 -0.087,-0.323 -0.126,-0.489 -0.061,-0.249 -0.122,-0.495 -0.176,-0.742 -0.046,-0.208 -0.088,-0.415 -0.123,-0.627 -0.029,-0.174 -0.039,-0.352 -0.059,-0.529 -0.025,-0.221 -0.057,-0.445 -0.078,-0.667 -0.02,-0.202 -0.037,-0.407 -0.044,-0.611 -0.014,-0.353 -0.034,-0.71 0.024,-1.065 0.033,-0.204 0.02,-0.414 0.048,-0.622 0.038,-0.283 0.041,-0.57 0.058,-0.856 0.008,-0.037 0.016,-0.071 0.022,-0.106 z m -1.521,17.781 c -0.003,0.01 -0.003,0.018 -0.006,0.024 -0.025,0 -0.053,0.002 -0.076,-0.005 -0.272,-0.094 -0.548,-0.18 -0.812,-0.289 -0.245,-0.101 -0.476,-0.231 -0.7,-0.374 -0.445,-0.281 -0.846,-0.613 -1.196,-1.002 -0.268,-0.298 -0.5,-0.621 -0.702,-0.969 -0.253,-0.434 -0.44,-0.895 -0.558,-1.382 -0.066,-0.275 -0.105,-0.56 -0.138,-0.844 -0.033,-0.288 -0.023,-0.57 0.014,-0.858 0.037,-0.295 0.102,-0.585 0.173,-0.873 0.062,-0.245 0.143,-0.484 0.223,-0.725 0.095,-0.279 0.189,-0.562 0.296,-0.837 0.152,-0.398 0.311,-0.791 0.476,-1.185 0.202,-0.482 0.413,-0.96 0.622,-1.438 0.188,-0.429 0.385,-0.854 0.576,-1.282 0.167,-0.366 0.333,-0.733 0.497,-1.102 0.148,-0.332 0.294,-0.668 0.438,-1.001 0.091,-0.215 0.176,-0.428 0.262,-0.643 0.125,-0.312 0.255,-0.625 0.377,-0.939 0.096,-0.247 0.189,-0.497 0.279,-0.748 0.056,-0.159 0.104,-0.319 0.156,-0.479 0.038,-0.116 0.074,-0.233 0.108,-0.351 0.061,-0.211 0.126,-0.42 0.182,-0.631 0.042,-0.168 0.077,-0.338 0.113,-0.511 0.029,-0.135 0.058,-0.27 0.076,-0.405 0.024,-0.151 0.037,-0.302 0.058,-0.449 0.005,-0.025 0.032,-0.062 0.051,-0.066 0.043,-0.002 0.055,0.034 0.051,0.074 -0.008,0.118 -0.015,0.239 -0.03,0.357 -0.019,0.152 -0.044,0.308 -0.066,0.457 -0.021,0.133 -0.041,0.268 -0.062,0.401 -0.013,0.078 -0.027,0.158 -0.044,0.237 -0.041,0.187 -0.085,0.373 -0.126,0.562 -0.043,0.195 -0.08,0.393 -0.126,0.587 -0.077,0.319 -0.155,0.638 -0.23,0.956 -0.02,0.08 -0.041,0.156 -0.061,0.236 -0.041,0.153 -0.083,0.309 -0.124,0.466 -0.039,0.148 -0.076,0.295 -0.116,0.445 -0.061,0.224 -0.123,0.448 -0.184,0.671 -0.037,0.131 -0.073,0.267 -0.112,0.399 -0.037,0.134 -0.081,0.272 -0.118,0.406 -0.04,0.146 -0.071,0.292 -0.113,0.437 -0.075,0.262 -0.156,0.522 -0.234,0.785 -0.053,0.181 -0.102,0.364 -0.155,0.544 -0.043,0.149 -0.088,0.301 -0.133,0.452 -0.04,0.135 -0.084,0.272 -0.124,0.408 -0.058,0.197 -0.115,0.392 -0.172,0.588 -0.037,0.126 -0.071,0.254 -0.109,0.378 -0.039,0.136 -0.083,0.271 -0.124,0.405 -0.039,0.136 -0.072,0.273 -0.112,0.411 -0.075,0.255 -0.155,0.51 -0.228,0.764 -0.059,0.203 -0.107,0.41 -0.16,0.615 -0.017,0.069 -0.034,0.141 -0.052,0.211 -0.026,0.108 -0.06,0.214 -0.078,0.324 -0.026,0.159 -0.036,0.323 -0.063,0.482 -0.049,0.288 -0.031,0.578 -0.038,0.868 -0.003,0.269 0.02,0.534 0.049,0.799 0.02,0.169 0.036,0.338 0.059,0.507 0.012,0.095 0.03,0.19 0.051,0.284 0.022,0.104 0.051,0.209 0.078,0.311 0.051,0.206 0.09,0.414 0.159,0.614 0.103,0.299 0.215,0.594 0.346,0.88 0.162,0.357 0.368,0.69 0.606,1.004 0.283,0.37 0.613,0.687 0.993,0.956 0.04,0.03 0.076,0.058 0.113,0.083 z m 2.481,-0.007 c 0.02,-0.009 0.039,-0.014 0.053,-0.024 0.021,-0.013 0.038,-0.028 0.057,-0.041 0.201,-0.135 0.385,-0.29 0.561,-0.458 0.23,-0.221 0.429,-0.471 0.611,-0.733 0.197,-0.288 0.361,-0.597 0.506,-0.917 0.124,-0.277 0.228,-0.562 0.313,-0.853 0.05,-0.167 0.089,-0.335 0.13,-0.504 0.021,-0.086 0.036,-0.174 0.057,-0.259 0.037,-0.162 0.076,-0.322 0.084,-0.489 0.002,-0.023 0.005,-0.045 0.01,-0.068 0.026,-0.208 0.065,-0.421 0.072,-0.632 0.016,-0.361 0.01,-0.727 0.004,-1.091 -0.004,-0.166 -0.031,-0.331 -0.05,-0.494 -0.013,-0.1 -0.034,-0.198 -0.054,-0.296 -0.023,-0.101 -0.055,-0.2 -0.078,-0.302 -0.043,-0.164 -0.086,-0.327 -0.131,-0.492 -0.052,-0.196 -0.111,-0.393 -0.166,-0.588 -0.055,-0.191 -0.104,-0.387 -0.16,-0.576 -0.041,-0.146 -0.084,-0.288 -0.127,-0.43 -0.044,-0.141 -0.083,-0.28 -0.127,-0.422 -0.059,-0.196 -0.115,-0.391 -0.17,-0.59 -0.038,-0.123 -0.069,-0.249 -0.105,-0.375 -0.058,-0.184 -0.119,-0.363 -0.173,-0.55 -0.063,-0.21 -0.124,-0.428 -0.187,-0.641 -0.053,-0.178 -0.104,-0.354 -0.153,-0.531 -0.044,-0.148 -0.081,-0.297 -0.123,-0.444 -0.041,-0.146 -0.085,-0.297 -0.127,-0.442 -0.038,-0.137 -0.077,-0.278 -0.112,-0.411 -0.061,-0.22 -0.123,-0.439 -0.183,-0.657 -0.034,-0.136 -0.07,-0.269 -0.104,-0.401 -0.043,-0.152 -0.088,-0.304 -0.127,-0.456 -0.038,-0.146 -0.07,-0.298 -0.108,-0.449 -0.06,-0.229 -0.126,-0.46 -0.184,-0.691 -0.056,-0.243 -0.104,-0.49 -0.157,-0.734 -0.018,-0.082 -0.039,-0.163 -0.058,-0.247 -0.026,-0.112 -0.054,-0.229 -0.075,-0.349 -0.023,-0.116 -0.042,-0.233 -0.064,-0.352 -0.024,-0.132 -0.056,-0.266 -0.078,-0.397 -0.03,-0.187 -0.056,-0.372 -0.079,-0.562 -0.014,-0.108 -0.02,-0.215 -0.029,-0.323 -0.004,-0.041 0.007,-0.075 0.05,-0.074 0.037,0 0.062,0.026 0.06,0.071 0,0.011 0,0.022 10e-4,0.034 0.019,0.166 0.04,0.329 0.058,0.493 10e-4,0.014 0.005,0.023 0.008,0.033 0.026,0.118 0.052,0.234 0.076,0.349 0.026,0.105 0.043,0.213 0.067,0.315 0.042,0.17 0.089,0.336 0.136,0.507 0.037,0.129 0.072,0.26 0.113,0.388 0.057,0.169 0.115,0.34 0.172,0.508 0.07,0.204 0.133,0.407 0.211,0.609 0.105,0.277 0.215,0.554 0.322,0.827 0.088,0.218 0.173,0.435 0.265,0.651 0.168,0.395 0.338,0.788 0.511,1.183 0.117,0.273 0.235,0.544 0.355,0.813 0.172,0.381 0.349,0.76 0.521,1.14 0.122,0.272 0.247,0.545 0.366,0.817 0.138,0.312 0.272,0.626 0.409,0.939 0.109,0.255 0.22,0.509 0.326,0.765 0.087,0.216 0.17,0.435 0.253,0.652 0.074,0.195 0.151,0.386 0.221,0.581 0.062,0.17 0.116,0.344 0.169,0.515 0.04,0.121 0.074,0.244 0.109,0.366 0.043,0.15 0.087,0.3 0.124,0.455 0.026,0.11 0.048,0.223 0.065,0.339 0.027,0.207 0.064,0.412 0.075,0.62 0.013,0.25 0.011,0.501 -0.039,0.749 -0.042,0.217 -0.061,0.437 -0.11,0.651 -0.043,0.185 -0.115,0.363 -0.175,0.544 -0.109,0.331 -0.268,0.637 -0.444,0.934 -0.224,0.381 -0.501,0.721 -0.803,1.036 -0.253,0.254 -0.525,0.487 -0.822,0.687 -0.279,0.186 -0.564,0.362 -0.874,0.492 -0.237,0.099 -0.482,0.187 -0.727,0.273 -0.06,0.02 -0.127,0.056 -0.218,0.009 z m -1.561,-17.583 c 0.016,0.056 0.027,0.088 0.029,0.12 0.011,0.216 0.02,0.433 0.031,0.648 0.011,0.241 0.025,0.477 0.035,0.719 0.008,0.224 0.039,0.446 -10e-4,0.672 -0.012,0.075 -0.018,0.152 -0.026,0.231 -0.037,0.365 -0.075,0.729 -0.113,1.096 -0.014,0.131 -0.029,0.263 -0.051,0.39 -0.04,0.233 -0.079,0.462 -0.123,0.696 -0.034,0.182 -0.068,0.368 -0.11,0.554 -0.057,0.238 -0.124,0.477 -0.178,0.715 -0.072,0.312 -0.139,0.625 -0.209,0.938 -0.02,0.087 -0.039,0.174 -0.058,0.259 -0.025,0.111 -0.051,0.225 -0.075,0.337 -0.024,0.11 -0.04,0.221 -0.062,0.328 -0.024,0.128 -0.054,0.257 -0.08,0.384 -0.026,0.134 -0.046,0.267 -0.07,0.4 -0.042,0.246 -0.091,0.494 -0.13,0.741 -0.027,0.169 -0.042,0.338 -0.063,0.506 -0.042,0.321 -0.091,0.643 -0.125,0.965 -0.029,0.276 -0.039,0.555 -0.055,0.832 -0.015,0.209 -0.037,0.413 -0.041,0.623 -0.004,0.457 -0.02,0.912 0.03,1.368 0.032,0.281 0.041,0.562 0.062,0.845 0.012,0.126 0.033,0.25 0.057,0.377 0.039,0.207 0.082,0.414 0.129,0.621 0.036,0.158 0.07,0.316 0.12,0.471 0.067,0.218 0.142,0.43 0.227,0.641 0.082,0.202 0.177,0.4 0.276,0.595 0.076,0.149 0.167,0.293 0.251,0.442 -0.077,0.037 -0.125,-0.023 -0.173,-0.048 -0.402,-0.21 -0.748,-0.494 -1.051,-0.828 -0.289,-0.316 -0.521,-0.669 -0.713,-1.048 -0.108,-0.214 -0.208,-0.436 -0.294,-0.66 -0.083,-0.225 -0.149,-0.457 -0.213,-0.685 -0.053,-0.195 -0.094,-0.39 -0.136,-0.584 -0.025,-0.116 -0.04,-0.236 -0.055,-0.355 -0.028,-0.198 -0.074,-0.396 -0.078,-0.593 -0.011,-0.535 -0.053,-1.068 0.036,-1.601 0.021,-0.132 0.035,-0.265 0.062,-0.397 0.039,-0.175 0.089,-0.351 0.137,-0.524 0.04,-0.152 0.087,-0.304 0.13,-0.459 0.039,-0.138 0.075,-0.282 0.115,-0.421 0.037,-0.133 0.075,-0.266 0.115,-0.398 0.039,-0.128 0.082,-0.254 0.118,-0.383 0.042,-0.144 0.079,-0.289 0.123,-0.434 0.071,-0.243 0.148,-0.484 0.22,-0.729 0.055,-0.188 0.103,-0.376 0.157,-0.565 0.04,-0.139 0.086,-0.279 0.13,-0.416 0.055,-0.192 0.106,-0.388 0.162,-0.576 0.075,-0.253 0.154,-0.501 0.227,-0.754 0.041,-0.14 0.072,-0.28 0.109,-0.42 0.059,-0.206 0.122,-0.406 0.178,-0.611 0.088,-0.317 0.169,-0.64 0.257,-0.962 0.057,-0.212 0.121,-0.426 0.177,-0.639 0.061,-0.232 0.113,-0.465 0.172,-0.695 0.073,-0.302 0.148,-0.601 0.221,-0.9 0.018,-0.07 0.035,-0.14 0.05,-0.214 0.018,-0.104 0.037,-0.21 0.057,-0.314 0.015,-0.078 0.03,-0.151 0.046,-0.227 0.003,-0.019 0.014,-0.035 0.037,-0.074 z m 0.085,-13.475 c -0.346,-0.1 -0.56,-0.483 -0.499,-0.818 0.071,-0.393 0.429,-0.655 0.781,-0.629 0.352,0.021 0.656,0.296 0.705,0.662 0.051,0.352 -0.209,0.722 -0.51,0.782 -0.012,-0.101 -0.09,-0.077 -0.159,-0.079 -0.058,-10e-4 -0.116,0.005 -0.173,-10e-4 -0.07,-0.007 -0.12,0.012 -0.145,0.083 z m 0.251,12.012 c -0.005,0.003 -0.012,0.003 -0.017,0.003 0,-0.082 0,-0.166 0,-0.245 0.005,0 0.012,0 0.017,0 0,0.079 0,0.163 0,0.242 z"
     id="path37"
     inkscape:connector-curvature="0"
     style="clip-rule:evenodd;fill:#444444;fill-rule:evenodd" /><path
     d="m 22.509,3.180814 c 0.358,-0.159 0.504,-0.511 0.465,-0.771 -0.066,-0.455 -0.397,-0.641 -0.708,-0.647 -0.336,-0.005 -0.62,0.235 -0.698,0.531 -0.101,0.381 0.11,0.738 0.446,0.869 -0.017,0.035 -0.052,0.029 -0.077,0.035 -0.121,0.023 -0.228,0.068 -0.298,0.178 -0.044,0.063 -0.073,0.132 -0.073,0.209 0,0.056 0,0.108 0,0.161 0,2.633 0,5.269 -0.003,7.898 0,0.103 0.014,0.196 0.058,0.289 0.023,0.042 0.023,0.1 0.019,0.149 -0.032,0.213 -0.067,0.427 -0.104,0.64 -0.025,0.139 -0.051,0.277 -0.088,0.412 -0.038,0.156 -0.089,0.31 -0.136,0.464 -0.063,0.214 -0.13,0.428 -0.199,0.64 -0.061,0.18 -0.129,0.357 -0.195,0.532 -0.078,0.211 -0.163,0.422 -0.25,0.631 -0.081,0.201 -0.168,0.402 -0.254,0.601 -0.104,0.247 -0.209,0.495 -0.316,0.741 -0.104,0.236 -0.21,0.47 -0.314,0.704 -0.166,0.367 -0.336,0.738 -0.501,1.107 -0.116,0.264 -0.232,0.529 -0.348,0.795 -0.097,0.223 -0.197,0.442 -0.29,0.667 -0.097,0.232 -0.186,0.471 -0.274,0.705 -0.073,0.192 -0.15,0.383 -0.214,0.577 -0.073,0.227 -0.139,0.452 -0.2,0.682 -0.042,0.144 -0.08,0.29 -0.105,0.436 -0.031,0.177 -0.061,0.354 -0.053,0.537 0.005,0.165 0,0.331 0.006,0.495 0.005,0.154 0.032,0.306 0.066,0.454 0.04,0.165 0.074,0.334 0.125,0.493 0.055,0.176 0.122,0.346 0.192,0.51 0.11,0.246 0.246,0.473 0.402,0.691 0.177,0.247 0.37,0.478 0.593,0.686 0.178,0.172 0.367,0.325 0.57,0.465 0.273,0.193 0.565,0.353 0.876,0.477 0.188,0.073 0.381,0.143 0.579,0.191 0.114,0.027 0.231,0.049 0.346,0.073 0.116,0.024 0.228,0.018 0.341,0.04 0.199,0.037 0.402,0.029 0.603,0.018 0.148,-0.005 0.296,-0.036 0.442,-0.058 0.094,-0.014 0.188,-0.028 0.281,-0.046 0.055,-0.012 0.11,-0.024 0.165,-0.041 0.349,-0.104 0.689,-0.236 1.007,-0.417 0.336,-0.189 0.65,-0.418 0.934,-0.689 0.215,-0.206 0.411,-0.426 0.582,-0.664 0.187,-0.257 0.343,-0.533 0.467,-0.825 0.076,-0.178 0.136,-0.361 0.191,-0.546 0.066,-0.219 0.101,-0.445 0.138,-0.669 0.016,-0.105 0.019,-0.209 0.019,-0.313 0.002,-0.159 0.002,-0.319 -0.008,-0.479 -0.009,-0.212 -0.053,-0.422 -0.107,-0.63 -0.029,-0.121 -0.053,-0.245 -0.09,-0.364 -0.022,-0.096 -0.05,-0.191 -0.079,-0.284 -0.059,-0.162 -0.114,-0.325 -0.173,-0.49 -0.061,-0.156 -0.112,-0.312 -0.178,-0.469 -0.089,-0.228 -0.182,-0.459 -0.276,-0.688 -0.068,-0.163 -0.142,-0.323 -0.211,-0.486 -0.114,-0.268 -0.234,-0.534 -0.353,-0.802 -0.091,-0.194 -0.178,-0.392 -0.265,-0.585 -0.125,-0.28 -0.251,-0.562 -0.375,-0.84 -0.127,-0.277 -0.251,-0.552 -0.37,-0.828 -0.122,-0.283 -0.236,-0.567 -0.353,-0.853 -0.107,-0.26 -0.215,-0.523 -0.313,-0.788 -0.077,-0.197 -0.14,-0.401 -0.211,-0.602 -0.058,-0.175 -0.121,-0.348 -0.173,-0.522 -0.058,-0.201 -0.109,-0.4 -0.156,-0.603 -0.028,-0.114 -0.056,-0.232 -0.077,-0.35 -0.02,-0.109 -0.029,-0.22 -0.045,-0.329 -0.012,-0.079 -0.022,-0.153 -0.033,-0.232 -0.004,-0.054 -0.001,-0.106 0.031,-0.153 0.046,-0.067 0.043,-0.144 0.043,-0.219 0,-1.242 0,-2.479 0,-3.719 0,-1.438 -0.002,-2.878 0,-4.314 0,-0.116 -0.016,-0.22 -0.097,-0.309 -0.071,-0.081 -0.163,-0.117 -0.262,-0.141 -0.033,-0.004 -0.059,-0.012 -0.084,-0.018 z m -0.333,13.277 c 0.008,0 0.017,0 0.023,0 0.017,0.095 0.034,0.188 0.046,0.281 0.017,0.104 0.022,0.209 0.044,0.312 0.016,0.088 0.043,0.174 0.063,0.26 0.046,0.19 0.091,0.386 0.136,0.579 0.03,0.124 0.066,0.247 0.097,0.372 0.03,0.131 0.053,0.265 0.08,0.396 0.03,0.137 0.069,0.267 0.1,0.399 0.039,0.172 0.075,0.344 0.11,0.519 0.039,0.197 0.078,0.395 0.115,0.593 0.018,0.093 0.033,0.184 0.048,0.275 0.016,0.104 0.03,0.207 0.043,0.312 0.023,0.156 0.046,0.312 0.069,0.469 0.002,0.012 0.002,0.023 0.005,0.035 0.021,0.132 0.041,0.265 0.057,0.397 0.019,0.113 0.027,0.227 0.038,0.342 0.013,0.154 0.026,0.312 0.036,0.467 0.006,0.146 0.012,0.287 0.012,0.434 0.005,0.298 0.011,0.595 0.005,0.893 -0.005,0.225 -0.026,0.45 -0.044,0.673 -0.009,0.13 -0.028,0.256 -0.047,0.385 0,0.005 0,0.011 -0.002,0.018 -0.018,0.099 -0.038,0.2 -0.06,0.296 -0.017,0.084 -0.024,0.17 -0.046,0.248 -0.047,0.165 -0.092,0.328 -0.147,0.489 -0.05,0.149 -0.105,0.301 -0.169,0.444 -0.085,0.196 -0.187,0.385 -0.309,0.565 -0.073,0.106 -0.154,0.212 -0.232,0.315 -0.034,0.044 -0.055,0.044 -0.092,-0.001 -0.048,-0.063 -0.099,-0.129 -0.145,-0.195 -0.165,-0.229 -0.3,-0.476 -0.407,-0.732 -0.07,-0.172 -0.131,-0.348 -0.186,-0.521 -0.041,-0.113 -0.06,-0.232 -0.092,-0.348 -0.048,-0.186 -0.093,-0.373 -0.113,-0.563 -0.013,-0.108 -0.031,-0.214 -0.041,-0.322 -0.022,-0.21 -0.053,-0.416 -0.06,-0.626 -0.014,-0.297 -0.007,-0.595 -0.007,-0.895 0,-0.122 -0.002,-0.247 0.007,-0.369 0.017,-0.246 0.037,-0.49 0.06,-0.736 0.023,-0.227 0.048,-0.454 0.076,-0.681 0.014,-0.111 0.031,-0.22 0.047,-0.33 0.016,-0.125 0.031,-0.252 0.049,-0.374 0.033,-0.21 0.074,-0.413 0.107,-0.619 0.004,-0.017 0.008,-0.031 0.011,-0.044 0.019,-0.089 0.038,-0.177 0.052,-0.264 0.021,-0.094 0.037,-0.186 0.054,-0.281 0.009,-0.064 0.024,-0.127 0.039,-0.193 0.021,-0.093 0.043,-0.188 0.063,-0.279 0.035,-0.146 0.067,-0.294 0.104,-0.438 0.026,-0.117 0.056,-0.232 0.084,-0.35 0.018,-0.079 0.029,-0.159 0.047,-0.235 0.012,-0.058 0.025,-0.111 0.041,-0.167 0.021,-0.076 0.045,-0.153 0.061,-0.232 0.016,-0.08 0.032,-0.164 0.047,-0.246 0.024,-0.128 0.049,-0.254 0.072,-0.379 0.021,-0.117 0.033,-0.232 0.051,-0.348 z m 0.295,-3.115 c 0.006,0 0.011,0 0.018,0 0.005,0.012 0.012,0.021 0.014,0.031 0.041,0.202 0.083,0.405 0.125,0.607 0.011,0.061 0.025,0.123 0.041,0.184 0.032,0.13 0.068,0.259 0.099,0.391 0.031,0.125 0.058,0.251 0.085,0.376 0.039,0.142 0.076,0.284 0.113,0.424 0.029,0.114 0.059,0.227 0.089,0.339 0.03,0.113 0.061,0.225 0.093,0.336 0.029,0.11 0.055,0.219 0.084,0.33 0.046,0.166 0.095,0.335 0.143,0.499 0.046,0.163 0.095,0.323 0.141,0.485 0.029,0.108 0.058,0.218 0.09,0.328 0.024,0.095 0.053,0.194 0.079,0.291 0.036,0.109 0.069,0.218 0.1,0.325 0.029,0.106 0.061,0.213 0.095,0.32 0.044,0.148 0.089,0.298 0.135,0.442 0.04,0.146 0.076,0.289 0.117,0.433 0.052,0.169 0.104,0.336 0.151,0.505 0.049,0.149 0.093,0.297 0.139,0.448 0.027,0.098 0.055,0.193 0.083,0.291 0.027,0.107 0.055,0.212 0.082,0.321 0.032,0.116 0.069,0.232 0.102,0.354 0.029,0.117 0.055,0.238 0.092,0.355 0.054,0.184 0.085,0.371 0.096,0.559 0.031,0.595 0.023,1.188 -0.104,1.779 -0.059,0.28 -0.128,0.562 -0.222,0.835 -0.074,0.216 -0.156,0.42 -0.256,0.621 -0.181,0.36 -0.402,0.689 -0.688,0.977 -0.23,0.236 -0.494,0.426 -0.789,0.573 -0.059,0.029 -0.124,0.053 -0.202,0.086 0.01,-0.033 0.013,-0.05 0.02,-0.06 0.043,-0.074 0.091,-0.145 0.135,-0.22 0.149,-0.239 0.262,-0.499 0.367,-0.757 0.047,-0.113 0.078,-0.232 0.116,-0.349 0.029,-0.114 0.057,-0.23 0.084,-0.348 0.032,-0.155 0.072,-0.309 0.098,-0.465 0.024,-0.143 0.046,-0.286 0.057,-0.43 0.025,-0.252 0.055,-0.501 0.062,-0.752 0.019,-0.526 0.006,-1.056 -0.043,-1.578 -0.025,-0.306 -0.067,-0.608 -0.101,-0.912 -0.028,-0.227 -0.058,-0.446 -0.089,-0.672 0,-0.014 -0.004,-0.027 -0.004,-0.043 -0.021,-0.104 -0.041,-0.204 -0.06,-0.308 -0.017,-0.097 -0.027,-0.197 -0.046,-0.293 -0.032,-0.158 -0.069,-0.316 -0.102,-0.473 -0.022,-0.114 -0.043,-0.23 -0.068,-0.343 -0.039,-0.18 -0.081,-0.357 -0.122,-0.537 -0.029,-0.135 -0.056,-0.268 -0.087,-0.4 -0.031,-0.127 -0.067,-0.254 -0.099,-0.382 -0.049,-0.191 -0.095,-0.385 -0.139,-0.574 -0.034,-0.163 -0.068,-0.325 -0.094,-0.489 -0.022,-0.136 -0.029,-0.272 -0.046,-0.409 -0.021,-0.173 -0.046,-0.348 -0.06,-0.519 -0.017,-0.159 -0.03,-0.316 -0.035,-0.477 -0.012,-0.274 -0.027,-0.549 0.019,-0.827 0.025,-0.157 0.017,-0.322 0.037,-0.482 0.03,-0.219 0.03,-0.444 0.046,-0.664 -0.001,-0.026 0.007,-0.052 0.009,-0.082 z m -1.182,13.813 c 0,0.007 -0.002,0.013 -0.004,0.018 -0.021,0 -0.042,0.002 -0.061,-0.003 -0.209,-0.072 -0.425,-0.141 -0.63,-0.226 -0.188,-0.078 -0.367,-0.18 -0.545,-0.291 -0.342,-0.217 -0.654,-0.476 -0.927,-0.777 -0.208,-0.23 -0.389,-0.483 -0.545,-0.753 -0.195,-0.338 -0.344,-0.695 -0.433,-1.072 -0.051,-0.214 -0.083,-0.436 -0.107,-0.656 -0.025,-0.224 -0.017,-0.442 0.011,-0.668 0.029,-0.228 0.078,-0.453 0.133,-0.677 0.049,-0.189 0.114,-0.376 0.176,-0.562 0.071,-0.219 0.146,-0.437 0.229,-0.652 0.118,-0.307 0.24,-0.613 0.37,-0.919 0.156,-0.375 0.32,-0.744 0.483,-1.116 0.147,-0.333 0.298,-0.664 0.447,-0.996 0.127,-0.285 0.26,-0.571 0.387,-0.856 0.114,-0.256 0.228,-0.519 0.34,-0.778 0.069,-0.166 0.136,-0.33 0.203,-0.498 0.099,-0.241 0.199,-0.486 0.291,-0.729 0.076,-0.191 0.147,-0.386 0.219,-0.581 0.043,-0.123 0.08,-0.247 0.121,-0.373 0.027,-0.089 0.056,-0.181 0.082,-0.271 0.047,-0.163 0.1,-0.327 0.144,-0.49 0.032,-0.129 0.06,-0.263 0.087,-0.396 0.021,-0.106 0.044,-0.209 0.061,-0.313 0.021,-0.119 0.027,-0.236 0.045,-0.35 0,-0.021 0.021,-0.05 0.039,-0.054 0.032,0 0.041,0.028 0.039,0.061 -0.007,0.091 -0.011,0.183 -0.022,0.275 -0.014,0.118 -0.034,0.237 -0.05,0.356 -0.02,0.104 -0.03,0.207 -0.051,0.31 -0.01,0.062 -0.021,0.123 -0.033,0.185 -0.034,0.146 -0.065,0.292 -0.102,0.438 -0.031,0.153 -0.059,0.306 -0.095,0.456 -0.058,0.248 -0.12,0.494 -0.18,0.742 -0.015,0.062 -0.03,0.122 -0.046,0.183 -0.032,0.122 -0.063,0.24 -0.097,0.363 -0.03,0.114 -0.061,0.229 -0.092,0.346 -0.047,0.175 -0.094,0.349 -0.142,0.521 -0.026,0.1 -0.057,0.207 -0.086,0.31 -0.03,0.104 -0.062,0.212 -0.092,0.315 -0.033,0.114 -0.058,0.227 -0.086,0.339 -0.062,0.206 -0.124,0.406 -0.186,0.611 -0.042,0.14 -0.078,0.282 -0.12,0.423 -0.033,0.116 -0.068,0.232 -0.103,0.35 -0.032,0.104 -0.064,0.212 -0.094,0.317 -0.047,0.152 -0.093,0.306 -0.138,0.458 -0.026,0.099 -0.053,0.194 -0.082,0.293 -0.032,0.104 -0.065,0.209 -0.098,0.315 -0.03,0.104 -0.056,0.212 -0.086,0.318 -0.06,0.197 -0.121,0.395 -0.177,0.593 -0.046,0.159 -0.085,0.318 -0.124,0.479 -0.014,0.054 -0.029,0.107 -0.041,0.164 -0.019,0.085 -0.046,0.166 -0.062,0.252 -0.019,0.122 -0.025,0.25 -0.049,0.373 -0.037,0.224 -0.025,0.449 -0.029,0.676 -0.002,0.207 0.016,0.414 0.04,0.621 0.015,0.131 0.025,0.262 0.045,0.392 0.009,0.074 0.022,0.147 0.038,0.221 0.019,0.083 0.041,0.163 0.062,0.242 0.039,0.16 0.072,0.321 0.124,0.479 0.081,0.231 0.166,0.46 0.267,0.683 0.127,0.275 0.287,0.535 0.472,0.779 0.22,0.288 0.475,0.533 0.771,0.743 0.033,0.015 0.062,0.038 0.089,0.057 z m 1.928,-0.005 c 0.014,-0.008 0.03,-0.013 0.042,-0.02 0.016,-0.009 0.029,-0.022 0.044,-0.032 0.156,-0.104 0.301,-0.226 0.434,-0.355 0.18,-0.173 0.333,-0.365 0.477,-0.571 0.155,-0.223 0.28,-0.463 0.395,-0.709 0.097,-0.217 0.175,-0.438 0.24,-0.665 0.04,-0.128 0.07,-0.26 0.102,-0.39 0.017,-0.068 0.027,-0.137 0.044,-0.203 0.027,-0.125 0.06,-0.25 0.065,-0.377 0,-0.02 0.004,-0.038 0.007,-0.055 0.02,-0.162 0.052,-0.326 0.059,-0.49 0.009,-0.281 0.005,-0.564 0,-0.85 -0.002,-0.128 -0.021,-0.256 -0.039,-0.383 -0.01,-0.077 -0.026,-0.154 -0.039,-0.23 -0.019,-0.077 -0.043,-0.156 -0.062,-0.235 -0.035,-0.126 -0.065,-0.253 -0.101,-0.38 -0.043,-0.152 -0.089,-0.303 -0.131,-0.456 -0.042,-0.151 -0.078,-0.301 -0.123,-0.448 -0.029,-0.113 -0.069,-0.223 -0.101,-0.333 -0.032,-0.11 -0.064,-0.22 -0.095,-0.329 -0.045,-0.152 -0.092,-0.303 -0.134,-0.458 -0.029,-0.096 -0.055,-0.194 -0.084,-0.29 -0.042,-0.143 -0.093,-0.283 -0.134,-0.427 -0.048,-0.164 -0.095,-0.334 -0.143,-0.498 -0.04,-0.139 -0.082,-0.276 -0.121,-0.412 -0.033,-0.117 -0.062,-0.231 -0.095,-0.347 -0.033,-0.116 -0.066,-0.23 -0.099,-0.343 -0.03,-0.106 -0.06,-0.216 -0.087,-0.32 -0.046,-0.169 -0.095,-0.341 -0.144,-0.51 -0.026,-0.104 -0.052,-0.21 -0.08,-0.312 -0.032,-0.117 -0.065,-0.235 -0.099,-0.353 -0.029,-0.117 -0.055,-0.232 -0.083,-0.35 -0.048,-0.18 -0.102,-0.359 -0.142,-0.537 -0.044,-0.189 -0.08,-0.381 -0.122,-0.57 -0.017,-0.063 -0.032,-0.127 -0.046,-0.191 -0.021,-0.088 -0.042,-0.179 -0.06,-0.272 -0.019,-0.09 -0.032,-0.181 -0.051,-0.271 -0.019,-0.104 -0.044,-0.207 -0.058,-0.31 -0.024,-0.146 -0.046,-0.289 -0.064,-0.437 -0.012,-0.085 -0.014,-0.167 -0.022,-0.251 -0.003,-0.032 0.007,-0.059 0.039,-0.059 0.029,0 0.05,0.021 0.048,0.055 0,0.009 0,0.017 0.002,0.029 0.012,0.127 0.03,0.253 0.045,0.382 0,0.011 0.004,0.018 0.004,0.026 0.021,0.091 0.041,0.181 0.06,0.271 0.019,0.08 0.031,0.164 0.053,0.246 0.032,0.129 0.069,0.259 0.105,0.39 0.028,0.103 0.058,0.203 0.088,0.303 0.041,0.132 0.087,0.265 0.134,0.396 0.055,0.157 0.104,0.315 0.162,0.473 0.081,0.216 0.169,0.429 0.251,0.641 0.068,0.172 0.136,0.34 0.205,0.509 0.133,0.305 0.264,0.609 0.396,0.918 0.092,0.211 0.185,0.422 0.279,0.631 0.133,0.296 0.268,0.59 0.403,0.887 0.095,0.21 0.191,0.422 0.283,0.634 0.107,0.241 0.211,0.486 0.318,0.729 0.084,0.2 0.171,0.396 0.254,0.595 0.066,0.167 0.13,0.338 0.195,0.507 0.057,0.149 0.117,0.3 0.169,0.451 0.052,0.131 0.093,0.267 0.134,0.399 0.032,0.094 0.059,0.19 0.083,0.285 0.034,0.115 0.069,0.233 0.096,0.353 0.023,0.085 0.04,0.175 0.051,0.264 0.023,0.16 0.053,0.32 0.061,0.48 0.012,0.195 0.009,0.39 -0.03,0.584 -0.032,0.167 -0.049,0.337 -0.085,0.505 -0.034,0.144 -0.09,0.282 -0.138,0.423 -0.082,0.256 -0.207,0.495 -0.346,0.725 -0.172,0.297 -0.385,0.56 -0.621,0.806 -0.196,0.196 -0.407,0.376 -0.638,0.532 -0.218,0.144 -0.438,0.28 -0.677,0.383 -0.188,0.075 -0.381,0.143 -0.568,0.213 -0.041,0.011 -0.094,0.042 -0.165,0.004 z m -1.211,-13.658 c 0.009,0.044 0.018,0.069 0.021,0.093 0.007,0.167 0.016,0.337 0.021,0.504 0.011,0.188 0.021,0.371 0.031,0.559 0.006,0.174 0.029,0.348 0,0.521 -0.012,0.06 -0.017,0.119 -0.021,0.181 -0.032,0.282 -0.061,0.567 -0.091,0.85 -0.011,0.104 -0.023,0.203 -0.039,0.304 -0.029,0.181 -0.064,0.359 -0.096,0.541 -0.025,0.142 -0.054,0.286 -0.086,0.431 -0.043,0.186 -0.094,0.368 -0.137,0.556 -0.059,0.241 -0.108,0.484 -0.164,0.728 -0.016,0.067 -0.029,0.135 -0.045,0.2 -0.021,0.088 -0.039,0.175 -0.059,0.263 -0.016,0.086 -0.029,0.172 -0.049,0.255 -0.02,0.1 -0.04,0.199 -0.062,0.297 -0.018,0.104 -0.036,0.208 -0.055,0.311 -0.029,0.192 -0.069,0.385 -0.099,0.576 -0.021,0.131 -0.034,0.264 -0.049,0.394 -0.034,0.249 -0.074,0.499 -0.099,0.748 -0.021,0.216 -0.03,0.434 -0.043,0.646 -0.011,0.164 -0.027,0.322 -0.03,0.484 -0.002,0.355 -0.017,0.708 0.023,1.063 0.022,0.217 0.029,0.437 0.048,0.655 0.01,0.098 0.025,0.194 0.042,0.293 0.031,0.16 0.066,0.322 0.103,0.483 0.025,0.122 0.054,0.243 0.092,0.364 0.05,0.169 0.111,0.334 0.177,0.498 0.062,0.157 0.137,0.311 0.215,0.462 0.06,0.117 0.127,0.227 0.194,0.344 -0.06,0.029 -0.099,-0.021 -0.135,-0.037 -0.311,-0.163 -0.579,-0.385 -0.818,-0.644 -0.223,-0.243 -0.402,-0.519 -0.549,-0.814 -0.085,-0.166 -0.163,-0.337 -0.23,-0.513 -0.064,-0.173 -0.114,-0.354 -0.163,-0.531 -0.046,-0.15 -0.075,-0.302 -0.105,-0.454 -0.021,-0.089 -0.034,-0.183 -0.047,-0.273 -0.021,-0.154 -0.057,-0.31 -0.059,-0.462 -0.007,-0.417 -0.042,-0.83 0.027,-1.243 0.016,-0.103 0.025,-0.207 0.048,-0.31 0.03,-0.136 0.069,-0.271 0.106,-0.406 0.032,-0.119 0.065,-0.237 0.101,-0.355 0.03,-0.109 0.06,-0.221 0.089,-0.328 0.028,-0.103 0.062,-0.206 0.091,-0.31 0.029,-0.099 0.062,-0.197 0.09,-0.296 0.037,-0.114 0.062,-0.226 0.096,-0.339 0.055,-0.19 0.117,-0.377 0.172,-0.566 0.042,-0.146 0.078,-0.293 0.12,-0.438 0.032,-0.107 0.071,-0.218 0.102,-0.323 0.046,-0.151 0.084,-0.302 0.129,-0.449 0.057,-0.196 0.119,-0.388 0.174,-0.585 0.032,-0.109 0.056,-0.217 0.085,-0.325 0.047,-0.16 0.097,-0.316 0.141,-0.476 0.069,-0.245 0.131,-0.496 0.197,-0.745 0.046,-0.165 0.097,-0.332 0.138,-0.499 0.049,-0.181 0.09,-0.359 0.134,-0.54 0.058,-0.231 0.115,-0.465 0.173,-0.697 0.014,-0.054 0.026,-0.109 0.036,-0.167 0.019,-0.083 0.03,-0.163 0.043,-0.245 0.013,-0.06 0.023,-0.117 0.04,-0.177 0.004,-0.014 0.012,-0.026 0.031,-0.057 z m 0.063,-10.467 c -0.268,-0.077 -0.433,-0.375 -0.385,-0.635 0.053,-0.307 0.33,-0.509 0.606,-0.49 0.271,0.018 0.507,0.23 0.547,0.516 0.037,0.273 -0.163,0.561 -0.395,0.606 -0.013,-0.077 -0.074,-0.06 -0.127,-0.062 -0.044,0 -0.088,0.005 -0.133,0 -0.055,-0.005 -0.093,0.012 -0.113,0.065 z m 0.197,9.331 c -0.004,0.002 -0.007,0.002 -0.012,0.002 0,-0.063 0,-0.128 0,-0.189 0.005,0 0.008,0 0.012,0 0,0.061 0,0.125 0,0.187 z"
     id="path39"
     inkscape:connector-curvature="0"
     style="clip-rule:evenodd;fill:#444444;fill-rule:evenodd" /><path
     d="m 1.378,3.180814 c 0.36,-0.159 0.504,-0.511 0.467,-0.771 -0.069,-0.455 -0.398,-0.641 -0.711,-0.647 -0.333,-0.005 -0.617,0.235 -0.697,0.531 -0.1,0.381 0.113,0.738 0.445,0.869 -0.015,0.035 -0.048,0.029 -0.075,0.035 -0.121,0.023 -0.228,0.068 -0.301,0.178 -0.043,0.063 -0.072,0.132 -0.072,0.209 0,0.056 0,0.108 0,0.161 0,2.633 0,5.269 -0.002,7.898 0,0.103 0.013,0.196 0.06,0.289 0.022,0.042 0.022,0.1 0.015,0.149 -0.031,0.213 -0.063,0.427 -0.103,0.64 -0.023,0.139 -0.05,0.277 -0.084,0.412 -0.04,0.156 -0.089,0.31 -0.137,0.464 -0.066,0.214 -0.129,0.428 -0.2,0.64 -0.06,0.18 -0.127,0.357 -0.193,0.532 -0.081,0.211 -0.165,0.422 -0.249,0.631 -0.084,0.201 -0.171,0.402 -0.255,0.601 -0.105,0.247 -0.209,0.495 -0.317,0.741 -0.104,0.236 -0.209,0.47 -0.315,0.704 -0.166,0.367 -0.336,0.738 -0.5,1.107 -0.119,0.264 -0.232,0.529 -0.347,0.795 -0.098,0.223 -0.197,0.442 -0.288,0.667 -0.097,0.232 -0.188,0.471 -0.279,0.705 -0.074,0.192 -0.15,0.383 -0.213,0.577 -0.073,0.227 -0.137,0.452 -0.2,0.682 -0.041,0.144 -0.08,0.29 -0.104,0.436 -0.031,0.177 -0.06,0.354 -0.056,0.537 0.004,0.165 0.003,0.331 0.008,0.495 0.004,0.154 0.03,0.306 0.066,0.454 0.039,0.165 0.073,0.334 0.125,0.493 0.056,0.176 0.12,0.346 0.194,0.51 0.11,0.246 0.246,0.473 0.4,0.691 0.176,0.247 0.372,0.478 0.594,0.686 0.179,0.172 0.368,0.325 0.569,0.465 0.272,0.193 0.562,0.353 0.875,0.477 0.191,0.073 0.38,0.143 0.58,0.191 0.115,0.027 0.232,0.049 0.348,0.073 0.114,0.024 0.228,0.018 0.34,0.04 0.199,0.037 0.4,0.029 0.601,0.018 0.149,-0.005 0.296,-0.036 0.443,-0.058 0.095,-0.014 0.189,-0.028 0.282,-0.046 0.056,-0.012 0.111,-0.024 0.165,-0.041 0.35,-0.104 0.688,-0.236 1.006,-0.417 0.338,-0.189 0.651,-0.418 0.934,-0.689 0.214,-0.206 0.409,-0.426 0.582,-0.664 0.187,-0.257 0.344,-0.533 0.466,-0.825 0.077,-0.178 0.137,-0.361 0.193,-0.546 0.066,-0.219 0.1,-0.445 0.139,-0.669 0.017,-0.105 0.018,-0.209 0.018,-0.313 0.002,-0.159 0.002,-0.319 -0.006,-0.479 -0.011,-0.212 -0.054,-0.422 -0.106,-0.63 -0.031,-0.121 -0.058,-0.245 -0.09,-0.364 -0.025,-0.096 -0.052,-0.191 -0.085,-0.284 -0.054,-0.162 -0.111,-0.325 -0.17,-0.49 -0.058,-0.156 -0.114,-0.312 -0.176,-0.469 -0.091,-0.228 -0.182,-0.459 -0.277,-0.688 -0.067,-0.163 -0.14,-0.323 -0.21,-0.486 -0.118,-0.268 -0.235,-0.534 -0.355,-0.802 -0.087,-0.194 -0.175,-0.392 -0.263,-0.585 -0.125,-0.28 -0.251,-0.562 -0.376,-0.84 -0.123,-0.277 -0.249,-0.552 -0.368,-0.828 -0.127,-0.284 -0.243,-0.568 -0.358,-0.853 -0.107,-0.26 -0.213,-0.523 -0.314,-0.788 -0.076,-0.197 -0.142,-0.401 -0.21,-0.602 -0.058,-0.175 -0.121,-0.348 -0.173,-0.522 -0.058,-0.202 -0.108,-0.401 -0.156,-0.603 -0.03,-0.114 -0.055,-0.232 -0.077,-0.35 -0.02,-0.109 -0.031,-0.22 -0.045,-0.329 -0.011,-0.079 -0.024,-0.153 -0.032,-0.232 -0.007,-0.054 -10e-4,-0.106 0.03,-0.153 0.046,-0.067 0.043,-0.144 0.043,-0.219 0,-1.242 0,-2.479 0,-3.719 0,-1.438 -0.002,-2.878 0,-4.314 0,-0.116 -0.017,-0.22 -0.095,-0.309 -0.073,-0.081 -0.165,-0.117 -0.265,-0.141 -0.029,-0.004 -0.056,-0.012 -0.083,-0.018 z m -0.332,13.277 c 0.008,0 0.016,0 0.024,0 0.016,0.095 0.033,0.188 0.045,0.281 0.017,0.104 0.025,0.209 0.043,0.312 0.017,0.088 0.044,0.174 0.065,0.26 0.046,0.19 0.089,0.386 0.136,0.579 0.029,0.124 0.066,0.247 0.095,0.372 0.031,0.131 0.054,0.265 0.083,0.396 0.031,0.137 0.069,0.267 0.098,0.399 0.039,0.172 0.076,0.344 0.111,0.519 0.038,0.197 0.078,0.395 0.114,0.593 0.018,0.093 0.034,0.184 0.047,0.275 0.016,0.104 0.028,0.207 0.044,0.312 0.023,0.156 0.045,0.312 0.068,0.469 0.002,0.012 0.002,0.023 0.005,0.035 0.02,0.132 0.043,0.265 0.059,0.397 0.017,0.115 0.028,0.228 0.037,0.343 0.014,0.154 0.028,0.312 0.036,0.467 0.008,0.146 0.012,0.287 0.015,0.434 0.002,0.298 0.007,0.595 0.002,0.893 -0.005,0.225 -0.027,0.45 -0.044,0.673 -0.01,0.13 -0.03,0.256 -0.045,0.385 0,0.005 -10e-4,0.011 -0.002,0.018 -0.021,0.099 -0.042,0.2 -0.062,0.296 -0.016,0.084 -0.027,0.17 -0.047,0.248 -0.045,0.165 -0.091,0.328 -0.144,0.489 -0.051,0.149 -0.106,0.301 -0.17,0.444 -0.086,0.196 -0.189,0.385 -0.309,0.565 -0.072,0.106 -0.153,0.212 -0.231,0.315 -0.036,0.044 -0.056,0.044 -0.091,-0.001 -0.05,-0.063 -0.099,-0.129 -0.146,-0.195 -0.164,-0.229 -0.296,-0.476 -0.406,-0.732 -0.072,-0.172 -0.134,-0.348 -0.189,-0.521 -0.038,-0.113 -0.058,-0.232 -0.089,-0.348 -0.05,-0.186 -0.091,-0.373 -0.114,-0.563 -0.012,-0.108 -0.031,-0.214 -0.043,-0.322 -0.021,-0.21 -0.052,-0.416 -0.059,-0.626 -0.012,-0.297 -0.006,-0.595 -0.007,-0.895 0,-0.122 -10e-4,-0.247 0.007,-0.369 0.017,-0.246 0.037,-0.49 0.062,-0.736 0.022,-0.227 0.047,-0.454 0.074,-0.681 0.013,-0.111 0.033,-0.22 0.047,-0.33 0.017,-0.125 0.031,-0.252 0.05,-0.374 0.033,-0.21 0.071,-0.413 0.107,-0.619 0.003,-0.017 0.008,-0.031 0.01,-0.044 0.018,-0.089 0.038,-0.177 0.055,-0.264 0.018,-0.094 0.033,-0.186 0.05,-0.281 0.012,-0.064 0.026,-0.127 0.04,-0.193 0.021,-0.093 0.043,-0.188 0.065,-0.279 0.033,-0.146 0.068,-0.294 0.102,-0.438 0.028,-0.117 0.057,-0.232 0.084,-0.35 0.018,-0.079 0.031,-0.159 0.047,-0.235 0.013,-0.058 0.026,-0.111 0.041,-0.167 0.021,-0.076 0.042,-0.153 0.061,-0.232 0.019,-0.08 0.032,-0.164 0.046,-0.246 0.025,-0.128 0.051,-0.254 0.073,-0.379 0.018,-0.118 0.033,-0.233 0.05,-0.349 z m 0.295,-3.115 c 0.006,0 0.012,0 0.017,0 0.005,0.012 0.013,0.021 0.014,0.031 0.042,0.202 0.082,0.405 0.124,0.607 0.013,0.061 0.025,0.123 0.042,0.184 0.033,0.13 0.068,0.259 0.099,0.391 0.03,0.125 0.056,0.251 0.086,0.376 0.035,0.142 0.071,0.284 0.108,0.424 0.03,0.114 0.062,0.227 0.091,0.339 0.031,0.113 0.062,0.225 0.094,0.336 0.028,0.11 0.055,0.219 0.084,0.33 0.046,0.166 0.094,0.335 0.143,0.499 0.045,0.163 0.091,0.323 0.138,0.485 0.03,0.108 0.059,0.218 0.09,0.328 0.026,0.095 0.054,0.194 0.082,0.291 0.034,0.109 0.068,0.218 0.1,0.325 0.032,0.106 0.059,0.213 0.092,0.32 0.043,0.148 0.092,0.298 0.135,0.442 0.041,0.146 0.078,0.289 0.119,0.433 0.052,0.169 0.103,0.336 0.155,0.505 0.045,0.149 0.09,0.297 0.135,0.448 0.029,0.098 0.056,0.193 0.083,0.291 0.028,0.107 0.055,0.212 0.085,0.321 0.032,0.116 0.068,0.232 0.1,0.354 0.031,0.117 0.056,0.238 0.09,0.355 0.054,0.184 0.086,0.371 0.097,0.559 0.029,0.595 0.025,1.188 -0.101,1.779 -0.061,0.28 -0.129,0.562 -0.224,0.835 -0.074,0.216 -0.157,0.42 -0.256,0.621 -0.181,0.36 -0.402,0.689 -0.688,0.977 -0.231,0.236 -0.495,0.426 -0.791,0.573 -0.058,0.029 -0.123,0.053 -0.201,0.086 0.01,-0.033 0.011,-0.05 0.019,-0.06 0.045,-0.074 0.093,-0.145 0.137,-0.22 0.148,-0.239 0.26,-0.499 0.365,-0.757 0.046,-0.113 0.081,-0.232 0.114,-0.349 0.033,-0.114 0.059,-0.23 0.086,-0.348 0.035,-0.155 0.072,-0.309 0.099,-0.465 0.025,-0.143 0.043,-0.286 0.058,-0.43 0.025,-0.252 0.052,-0.501 0.061,-0.752 0.019,-0.526 0.004,-1.056 -0.043,-1.578 -0.025,-0.306 -0.066,-0.608 -0.101,-0.912 -0.028,-0.227 -0.058,-0.446 -0.086,-0.672 -0.001,-0.014 -0.005,-0.027 -0.007,-0.043 -0.021,-0.104 -0.042,-0.204 -0.058,-0.308 -0.017,-0.097 -0.028,-0.197 -0.047,-0.293 -0.031,-0.158 -0.068,-0.316 -0.101,-0.473 -0.024,-0.114 -0.043,-0.23 -0.069,-0.343 -0.039,-0.18 -0.082,-0.357 -0.122,-0.537 -0.031,-0.135 -0.057,-0.268 -0.088,-0.4 -0.03,-0.127 -0.067,-0.254 -0.097,-0.382 -0.048,-0.191 -0.096,-0.385 -0.137,-0.574 -0.038,-0.163 -0.07,-0.325 -0.096,-0.489 -0.021,-0.136 -0.029,-0.272 -0.045,-0.409 -0.022,-0.173 -0.045,-0.348 -0.062,-0.519 -0.015,-0.159 -0.028,-0.316 -0.033,-0.477 -0.011,-0.274 -0.027,-0.549 0.018,-0.827 0.026,-0.157 0.015,-0.322 0.038,-0.482 0.03,-0.219 0.03,-0.444 0.044,-0.664 0.002,-0.026 0.006,-0.052 0.011,-0.082 z m -1.182,13.813 c 0,0.007 -0.001,0.013 -0.002,0.018 -0.02,0 -0.042,0.002 -0.061,-0.003 -0.21,-0.072 -0.423,-0.141 -0.63,-0.226 -0.189,-0.078 -0.369,-0.18 -0.542,-0.291 -0.346,-0.217 -0.657,-0.476 -0.93,-0.777 -0.208,-0.23 -0.389,-0.483 -0.546,-0.753 -0.197,-0.338 -0.341,-0.695 -0.432,-1.072 -0.051,-0.214 -0.083,-0.436 -0.107,-0.656 -0.025,-0.224 -0.018,-0.442 0.011,-0.668 0.029,-0.228 0.079,-0.453 0.135,-0.677 0.046,-0.189 0.11,-0.376 0.173,-0.562 0.072,-0.219 0.148,-0.437 0.23,-0.652 0.118,-0.307 0.241,-0.613 0.369,-0.919 0.156,-0.375 0.32,-0.744 0.483,-1.116 0.146,-0.333 0.297,-0.664 0.447,-0.996 0.129,-0.285 0.258,-0.571 0.387,-0.856 0.114,-0.256 0.228,-0.519 0.34,-0.778 0.072,-0.166 0.136,-0.33 0.203,-0.498 0.098,-0.241 0.197,-0.486 0.292,-0.729 0.076,-0.191 0.148,-0.386 0.218,-0.581 0.044,-0.123 0.083,-0.247 0.122,-0.373 0.028,-0.089 0.057,-0.181 0.083,-0.271 0.048,-0.163 0.099,-0.327 0.142,-0.49 0.033,-0.129 0.06,-0.263 0.09,-0.396 0.021,-0.106 0.043,-0.209 0.059,-0.313 0.019,-0.119 0.027,-0.236 0.045,-0.35 0.002,-0.021 0.023,-0.05 0.039,-0.054 0.033,0 0.042,0.028 0.039,0.061 -0.006,0.091 -0.01,0.183 -0.022,0.275 -0.015,0.118 -0.036,0.237 -0.052,0.356 -0.017,0.104 -0.03,0.207 -0.049,0.31 -0.009,0.062 -0.02,0.123 -0.033,0.185 -0.033,0.146 -0.067,0.292 -0.098,0.438 -0.034,0.153 -0.065,0.306 -0.1,0.456 -0.057,0.248 -0.119,0.494 -0.178,0.742 -0.016,0.06 -0.033,0.12 -0.049,0.18 -0.031,0.122 -0.063,0.24 -0.097,0.363 -0.031,0.114 -0.058,0.229 -0.09,0.346 -0.047,0.175 -0.095,0.349 -0.142,0.521 -0.029,0.1 -0.058,0.207 -0.089,0.31 -0.027,0.104 -0.061,0.212 -0.09,0.315 -0.031,0.114 -0.056,0.227 -0.088,0.339 -0.058,0.206 -0.122,0.406 -0.181,0.611 -0.042,0.14 -0.079,0.282 -0.12,0.423 -0.034,0.116 -0.07,0.232 -0.104,0.35 -0.031,0.104 -0.065,0.212 -0.096,0.317 -0.044,0.152 -0.09,0.306 -0.135,0.458 -0.028,0.099 -0.056,0.194 -0.083,0.293 -0.031,0.104 -0.066,0.209 -0.097,0.315 -0.031,0.104 -0.055,0.212 -0.085,0.318 -0.059,0.197 -0.123,0.395 -0.178,0.593 -0.044,0.159 -0.082,0.318 -0.123,0.479 -0.015,0.054 -0.028,0.107 -0.042,0.164 -0.02,0.085 -0.045,0.166 -0.06,0.252 -0.021,0.122 -0.028,0.25 -0.049,0.373 -0.038,0.224 -0.025,0.449 -0.029,0.676 -0.002,0.207 0.014,0.414 0.039,0.621 0.015,0.131 0.027,0.262 0.044,0.392 0.01,0.074 0.024,0.147 0.041,0.221 0.018,0.083 0.038,0.163 0.061,0.242 0.039,0.16 0.071,0.321 0.124,0.479 0.081,0.231 0.167,0.46 0.268,0.683 0.127,0.275 0.287,0.535 0.471,0.779 0.22,0.288 0.477,0.533 0.772,0.743 0.027,0.018 0.054,0.041 0.082,0.06 z m 1.929,-0.005 c 0.015,-0.008 0.028,-0.013 0.041,-0.02 0.015,-0.009 0.029,-0.022 0.044,-0.032 0.156,-0.104 0.299,-0.226 0.435,-0.355 0.178,-0.173 0.333,-0.365 0.473,-0.571 0.156,-0.223 0.282,-0.463 0.395,-0.709 0.097,-0.217 0.177,-0.438 0.243,-0.665 0.038,-0.128 0.068,-0.26 0.101,-0.39 0.017,-0.068 0.027,-0.137 0.042,-0.203 0.029,-0.125 0.061,-0.25 0.066,-0.377 0,-0.02 0.004,-0.038 0.006,-0.055 0.021,-0.162 0.051,-0.326 0.058,-0.49 0.011,-0.281 0.008,-0.564 0.002,-0.85 -0.002,-0.128 -0.022,-0.256 -0.039,-0.383 -0.01,-0.077 -0.024,-0.154 -0.041,-0.23 -0.019,-0.077 -0.041,-0.156 -0.062,-0.235 -0.033,-0.126 -0.064,-0.253 -0.1,-0.38 -0.041,-0.152 -0.085,-0.303 -0.128,-0.456 -0.042,-0.151 -0.082,-0.301 -0.125,-0.448 -0.032,-0.113 -0.067,-0.223 -0.101,-0.333 -0.031,-0.11 -0.064,-0.22 -0.096,-0.329 -0.045,-0.152 -0.091,-0.303 -0.134,-0.458 -0.027,-0.096 -0.053,-0.194 -0.081,-0.29 -0.043,-0.143 -0.092,-0.283 -0.133,-0.427 -0.05,-0.164 -0.097,-0.334 -0.145,-0.498 -0.041,-0.139 -0.082,-0.276 -0.121,-0.412 -0.033,-0.117 -0.062,-0.231 -0.094,-0.347 -0.031,-0.115 -0.065,-0.23 -0.098,-0.343 -0.031,-0.106 -0.061,-0.216 -0.09,-0.32 -0.047,-0.169 -0.094,-0.341 -0.141,-0.51 -0.028,-0.104 -0.053,-0.21 -0.082,-0.312 -0.032,-0.117 -0.068,-0.235 -0.099,-0.353 -0.029,-0.117 -0.054,-0.232 -0.083,-0.35 -0.047,-0.18 -0.099,-0.359 -0.142,-0.537 -0.044,-0.189 -0.081,-0.381 -0.123,-0.57 -0.014,-0.063 -0.03,-0.127 -0.045,-0.191 -0.02,-0.088 -0.042,-0.179 -0.059,-0.272 -0.018,-0.09 -0.032,-0.181 -0.05,-0.271 -0.017,-0.104 -0.042,-0.207 -0.06,-0.31 -0.023,-0.146 -0.044,-0.289 -0.063,-0.437 -0.01,-0.085 -0.014,-0.167 -0.022,-0.251 -0.002,-0.032 0.007,-0.059 0.042,-0.059 0.027,0 0.047,0.021 0.046,0.055 -0.002,0.009 0,0.017 0.001,0.029 0.015,0.127 0.028,0.253 0.043,0.382 0.001,0.011 0.005,0.018 0.008,0.026 0.019,0.091 0.039,0.181 0.059,0.271 0.018,0.08 0.032,0.164 0.053,0.246 0.032,0.129 0.068,0.259 0.104,0.39 0.03,0.103 0.058,0.203 0.088,0.303 0.045,0.132 0.089,0.265 0.135,0.396 0.053,0.157 0.104,0.315 0.163,0.473 0.081,0.216 0.167,0.429 0.251,0.641 0.067,0.172 0.133,0.34 0.205,0.509 0.129,0.305 0.264,0.609 0.397,0.918 0.091,0.211 0.182,0.422 0.277,0.631 0.133,0.296 0.269,0.59 0.402,0.887 0.095,0.21 0.191,0.422 0.284,0.634 0.106,0.241 0.212,0.486 0.318,0.729 0.084,0.2 0.171,0.396 0.253,0.595 0.07,0.167 0.131,0.338 0.197,0.507 0.058,0.149 0.117,0.3 0.172,0.451 0.048,0.131 0.09,0.267 0.133,0.399 0.029,0.094 0.056,0.19 0.083,0.285 0.034,0.113 0.069,0.231 0.099,0.351 0.02,0.085 0.037,0.175 0.05,0.264 0.023,0.16 0.051,0.32 0.059,0.48 0.01,0.195 0.009,0.39 -0.029,0.584 -0.033,0.167 -0.049,0.337 -0.086,0.505 -0.034,0.144 -0.089,0.282 -0.136,0.423 -0.086,0.256 -0.208,0.495 -0.346,0.725 -0.172,0.297 -0.388,0.56 -0.624,0.806 -0.195,0.196 -0.406,0.376 -0.638,0.532 -0.217,0.144 -0.438,0.28 -0.679,0.383 -0.184,0.075 -0.374,0.143 -0.564,0.213 -0.048,0.013 -0.099,0.044 -0.169,0.006 z m -1.212,-13.658 c 0.01,0.044 0.02,0.069 0.022,0.093 0.008,0.167 0.016,0.337 0.024,0.504 0.009,0.188 0.019,0.371 0.027,0.559 0.007,0.174 0.031,0.348 0,0.521 -0.01,0.06 -0.015,0.119 -0.021,0.181 -0.03,0.282 -0.058,0.567 -0.088,0.85 -0.013,0.104 -0.023,0.203 -0.041,0.304 -0.029,0.181 -0.062,0.359 -0.095,0.541 -0.026,0.142 -0.053,0.286 -0.086,0.431 -0.043,0.186 -0.095,0.368 -0.138,0.556 -0.057,0.241 -0.107,0.484 -0.162,0.728 -0.016,0.067 -0.031,0.135 -0.044,0.2 -0.021,0.088 -0.041,0.175 -0.059,0.263 -0.018,0.086 -0.031,0.172 -0.048,0.255 -0.021,0.1 -0.043,0.199 -0.062,0.297 -0.02,0.104 -0.038,0.208 -0.056,0.311 -0.032,0.192 -0.069,0.385 -0.1,0.576 -0.021,0.131 -0.032,0.264 -0.05,0.394 -0.032,0.249 -0.071,0.499 -0.096,0.748 -0.022,0.216 -0.031,0.434 -0.044,0.646 -0.01,0.164 -0.028,0.322 -0.03,0.484 -0.003,0.355 -0.015,0.708 0.022,1.063 0.025,0.217 0.031,0.437 0.051,0.655 0.007,0.098 0.024,0.194 0.042,0.293 0.03,0.16 0.063,0.322 0.101,0.483 0.027,0.122 0.054,0.243 0.092,0.364 0.053,0.169 0.109,0.334 0.177,0.498 0.064,0.157 0.136,0.311 0.214,0.462 0.06,0.117 0.128,0.227 0.195,0.344 -0.06,0.029 -0.1,-0.021 -0.133,-0.037 -0.312,-0.163 -0.582,-0.385 -0.817,-0.644 -0.224,-0.243 -0.405,-0.519 -0.553,-0.814 -0.083,-0.166 -0.162,-0.337 -0.228,-0.513 -0.065,-0.173 -0.117,-0.354 -0.167,-0.531 -0.042,-0.15 -0.074,-0.302 -0.106,-0.454 -0.019,-0.089 -0.031,-0.183 -0.043,-0.273 -0.022,-0.154 -0.057,-0.31 -0.06,-0.462 -0.007,-0.417 -0.04,-0.83 0.028,-1.243 0.015,-0.103 0.025,-0.207 0.048,-0.31 0.031,-0.136 0.068,-0.271 0.105,-0.406 0.033,-0.119 0.067,-0.237 0.102,-0.355 0.029,-0.109 0.058,-0.221 0.089,-0.328 0.029,-0.103 0.059,-0.206 0.089,-0.31 0.029,-0.099 0.062,-0.197 0.092,-0.296 0.033,-0.114 0.062,-0.226 0.095,-0.339 0.057,-0.19 0.115,-0.377 0.171,-0.566 0.043,-0.146 0.08,-0.293 0.123,-0.438 0.032,-0.107 0.069,-0.218 0.099,-0.323 0.045,-0.151 0.084,-0.302 0.128,-0.449 0.058,-0.196 0.12,-0.388 0.175,-0.585 0.033,-0.109 0.057,-0.217 0.086,-0.325 0.044,-0.16 0.094,-0.316 0.139,-0.476 0.067,-0.245 0.131,-0.496 0.198,-0.745 0.046,-0.165 0.094,-0.332 0.138,-0.499 0.046,-0.181 0.087,-0.359 0.132,-0.54 0.057,-0.231 0.115,-0.465 0.171,-0.697 0.014,-0.054 0.028,-0.109 0.039,-0.167 0.016,-0.083 0.028,-0.163 0.045,-0.245 0.009,-0.06 0.022,-0.117 0.035,-0.177 0.006,-0.014 0.014,-0.026 0.033,-0.057 z m 0.065,-10.467 c -0.269,-0.077 -0.434,-0.375 -0.388,-0.635 0.057,-0.307 0.333,-0.509 0.607,-0.49 0.273,0.018 0.509,0.23 0.548,0.516 0.038,0.273 -0.163,0.561 -0.397,0.606 -0.011,-0.077 -0.071,-0.06 -0.124,-0.062 -0.045,0 -0.091,0.005 -0.134,0 -0.054,-0.005 -0.093,0.012 -0.112,0.065 z m 0.195,9.331 c -0.003,0.002 -0.008,0.002 -0.012,0.002 0,-0.063 0,-0.128 0,-0.189 0.004,0 0.009,0 0.012,0 0,0.061 0,0.125 0,0.187 z"
     id="path41"
     inkscape:connector-curvature="0"
     style="clip-rule:evenodd;fill:#444444;fill-rule:evenodd" /><path
     style="clip-rule:evenodd;fill:#ffffff;fill-rule:evenodd"
     inkscape:connector-curvature="0"
     id="path43"
     d="m 4.7207431,29.943221 c 0,0.03566 0,0.0722 0,0.106967 -0.00178,0 -0.00446,0 -0.00713,0 0,-0.03477 0,-0.07131 0,-0.106967 0.00267,0 0.00535,0 0.00713,0 z" /><line
     id="line45"
     y2="63.5"
     x2="23.625"
     y1="63.5"
     x1="-0.625"
     stroke-miterlimit="10"
     stroke-width="0.5"
     stroke="#444444"
     fill="#FFFFFF" /><text
     sodipodi:linespacing="50%"
     id="text4191"
     y="40.129189"
     x="0.29839844"
     style="font-style:normal;font-variant:normal;font-weight:normal;font-stretch:normal;font-size:6.88749647px;line-height:50%;font-family:'2Dumb';-inkscape-font-specification:'2Dumb, Normal';text-align:start;letter-spacing:0px;word-spacing:0px;writing-mode:lr-tb;text-anchor:start;fill:#483737;fill-opacity:1;stroke:none;stroke-width:1px;stroke-linecap:butt;stroke-linejoin:miter;stroke-opacity:1"
     xml:space="preserve"><tspan
       y="40.129189"
       x="0.29839844"
       id="tspan4193"
       sodipodi:role="line">food</tspan></text>
<text
     xml:space="preserve"
     style="font-style:normal;font-variant:normal;font-weight:normal;font-stretch:normal;font-size:12.25664902px;line-height:50%;font-family:'2Dumb';-inkscape-font-specification:'2Dumb, Normal';text-align:start;letter-spacing:0px;word-spacing:0px;writing-mode:lr-tb;text-anchor:start;fill:#483737;fill-opacity:1;stroke:none;stroke-width:1px;stroke-linecap:butt;stroke-linejoin:miter;stroke-opacity:1"
     x="-8.7421732"
     y="50.805664"
     id="text4199"
     sodipodi:linespacing="50%"><tspan
       sodipodi:role="line"
       id="tspan4201"
       x="-8.7421732"
       y="50.805664">meets</tspan></text>
<text
     sodipodi:linespacing="50%"
     id="text4203"
     y="59.628521"
     x="-1.2129335"
     style="font-style:normal;font-variant:normal;font-weight:normal;font-stretch:normal;font-size:8.68689632px;line-height:50%;font-family:'2Dumb';-inkscape-font-specification:'2Dumb, Normal';text-align:start;letter-spacing:0px;word-spacing:0px;writing-mode:lr-tb;text-anchor:start;fill:#483737;fill-opacity:1;stroke:none;stroke-width:1px;stroke-linecap:butt;stroke-linejoin:miter;stroke-opacity:1"
     xml:space="preserve"><tspan
       y="59.628521"
       x="-1.2129335"
       id="tspan4205"
       sodipodi:role="line">finga</tspan></text>
</g></svg>